HIERARCHY
ROOT Hips
{
    OFFSET 0.000000 0.000000 0.000000
    CHANNELS 6 Xposition Yposition Zposition Zrotation Xrotation Yrotation
    JOINT Spine
    {
        OFFSET -0.000000 14.517291 0.000000
        CHANNELS 3 Zrotation Xrotation Yrotation
        JOINT Spine1
        {
            OFFSET -0.000000 37.558300 0.000000
            CHANNELS 3 Zrotation Xrotation Yrotation
            JOINT Neck
            {
                OFFSET -0.000000 37.404057 3.400369
                CHANNELS 3 Zrotation Xrotation Yrotation
                JOINT Head
                {
                    OFFSET -0.000000 24.785618 -3.540803
                    CHANNELS 3 Zrotation Xrotation Yrotation
                    End Site
                    {
                        OFFSET -0.000000 35.408028 0.000000
                    }
                }
            }
            JOINT LeftShoulder
            {
                OFFSET 6.992933 33.973492 -0.192664
                CHANNELS 3 Zrotation Xrotation Yrotation
                JOINT LeftArm
                {
                    OFFSET 21.527611 0.000000 0.000000
                    CHANNELS 3 Zrotation Xrotation Yrotation
                    JOINT LeftForeArm
                    {
                        OFFSET 56.353916 0.000000 0.000000
                        CHANNELS 3 Zrotation Xrotation Yrotation
                        JOINT LeftHand
                        {
                            OFFSET 47.774071 0.000000 0.000000
                            CHANNELS 3 Zrotation Xrotation Yrotation
                            End Site
                            {
                                OFFSET 26.556021 0.000000 0.000000
                            }
                        }
                    }
                }
            }
            JOINT RightShoulder
            {
                OFFSET -7.065357 33.973492 -0.192664
                CHANNELS 3 Zrotation Xrotation Yrotation
                JOINT RightArm
                {
                    OFFSET -21.527611 0.000000 0.000000
                    CHANNELS 3 Zrotation Xrotation Yrotation
                    JOINT RightForeArm
                    {
                        OFFSET -56.353916 0.000000 0.000000
                        CHANNELS 3 Zrotation Xrotation Yrotation
                        JOINT RightHand
                        {
                            OFFSET -47.774071 0.000000 0.000000
                            CHANNELS 3 Zrotation Xrotation Yrotation
                            End Site
                            {
                                OFFSET -26.556021 0.000000 0.000000
                            }
                        }
                    }
                }
            }
        }
    }
    JOINT LeftUpLeg
    {
        OFFSET 17.704014 0.000000 0.000000
        CHANNELS 3 Zrotation Xrotation Yrotation
        JOINT LeftLeg
        {
            OFFSET -0.000000 -81.181816 0.000000
            CHANNELS 3 Zrotation Xrotation Yrotation
            JOINT LeftFoot
            {
                OFFSET -0.000000 -62.821102 0.000000
                CHANNELS 3 Zrotation Xrotation Yrotation
                JOINT LeftToeBase
                {
                    OFFSET -0.000000 -11.507608 26.556021
                    CHANNELS 3 Zrotation Xrotation Yrotation
                    End Site
                    {
                        OFFSET -0.000000 0.000000 7.081605
                    }
                }
            }
        }
    }
    JOINT RightUpLeg
    {
        OFFSET -17.704014 0.000000 0.000000
        CHANNELS 3 Zrotation Xrotation Yrotation
        JOINT RightLeg
        {
            OFFSET -0.000000 -81.181816 0.000000
            CHANNELS 3 Zrotation Xrotation Yrotation
            JOINT RightFoot
            {
                OFFSET -0.000000 -62.821102 0.000000
                CHANNELS 3 Zrotation Xrotation Yrotation
                JOINT RightToeBase
                {
                    OFFSET -0.000000 -11.507608 26.556021
                    CHANNELS 3 Zrotation Xrotation Yrotation
                    End Site
                    {
                        OFFSET -0.000000 0.000000 7.081605
                    }
                }
            }
        }
    }
}
MOTION
Frames:    13
Frame Time:    0.008333
-11.946020    151.082321    -5.641184    0.581691    0.507617    23.654226    -2.913927    2.989819    8.409719    -2.212040    -1.753310    2.744382    -1.192560    4.742954    -16.408895    12.998001    -8.010031    -14.261823    -1.364798    5.865771    -7.187787    -41.566288    9.775239    -44.981853    35.483517    -53.698910    -60.687931    -26.205746    -34.462860    -23.000816    -0.255074    10.711988    0.042289    38.237415    13.850184    47.092575    -40.061981    -33.642471    43.994568    13.145951    -14.665154    33.155922    -1.352011    -34.146843    -27.453770    -15.068888    31.305391    -19.973866    -3.702317    -3.168948    29.948610    0.000000    0.000000    0.000000    2.751602    7.527657    -19.821421    3.558856    30.954725    -4.420890    1.607693    -34.525826    -8.342365    0.000000    0.000000    0.000000    
-11.947068    151.077057    -5.647933    0.584954    0.508363    23.666983    -2.906118    2.989055    8.405816    -2.214115    -1.754490    2.743083    -1.208681    4.734970    -16.405380    13.002399    -7.976982    -14.259066    -1.378507    5.868224    -7.195517    -41.564980    9.776823    -44.985203    35.452778    -53.709465    -60.722435    -26.174683    -34.492062    -22.977217    -0.266560    10.706641    0.040837    38.227982    13.848098    47.071838    -40.072411    -33.652626    44.027287    13.151801    -14.654036    33.178997    -1.356730    -34.157413    -27.440825    -15.082366    31.315260    -19.979462    -3.677929    -3.144431    29.929359    0.000000    0.000000    0.000000    2.744091    7.518950    -19.821671    3.566587    30.978241    -4.418296    1.592326    -34.540424    -8.354970    0.000000    0.000000    0.000000    
-11.950805    151.072342    -5.652370    0.582271    0.507450    23.682318    -2.894845    2.983265    8.400546    -2.218806    -1.754414    2.741405    -1.227548    4.745328    -16.407213    13.030048    -7.959993    -14.255234    -1.373399    5.878273    -7.201298    -41.575153    9.786593    -45.003143    35.454258    -53.724388    -60.724300    -26.160210    -34.513191    -22.981033    -0.277829    10.708517    0.039004    38.238407    13.812613    47.055698    -40.046444    -33.642643    44.083530    13.118488    -14.640100    33.180637    -1.353124    -34.165726    -27.426048    -15.088156    31.320648    -20.010803    -3.670529    -3.139040    29.934914    0.000000    0.000000    0.000000    2.745797    7.514327    -19.836847    3.571660    30.988987    -4.424002    1.606321    -34.541546    -8.343778    0.000000    0.000000    0.000000    
-11.950776    151.064163    -5.653214    0.585269    0.503471    23.695528    -2.885262    2.978408    8.402303    -2.226405    -1.752149    2.742019    -1.245187    4.753764    -16.410480    13.056692    -7.937711    -14.253843    -1.378326    5.881227    -7.210473    -41.573051    9.804273    -45.019222    35.472286    -53.736813    -60.708626    -26.158535    -34.529236    -22.968218    -0.292975    10.715050    0.033203    38.257305    13.779043    47.030781    -40.021172    -33.642101    44.162334    13.101504    -14.625546    33.158169    -1.349735    -34.167576    -27.407385    -15.103241    31.333906    -19.997513    -3.586946    -3.125791    29.890730    0.000000    0.000000    0.000000    2.753605    7.548560    -19.836647    3.852166    30.861765    -4.998900    1.329941    -34.549557    -8.396965    0.000000    0.000000    0.000000    
-11.952713    151.056442    -5.655903    0.585688    0.497512    23.707653    -2.870148    2.976662    8.404263    -2.240020    -1.747626    2.742707    -1.254174    4.733913    -16.410645    13.061234    -7.885535    -14.257718    -1.373497    5.891518    -7.208892    -41.588894    9.800774    -45.049435    35.429054    -53.736507    -60.744469    -26.142792    -34.544903    -22.955690    -0.302645    10.715069    0.022268    38.263500    13.763370    47.017815    -40.020756    -33.645237    44.211227    13.103115    -14.609578    33.148834    -1.347112    -34.174431    -27.375439    -15.114008    31.341543    -20.014210    -3.646564    -3.122550    29.903900    0.000000    0.000000    0.000000    2.746777    7.523102    -19.853762    3.589903    31.002003    -4.440346    1.560567    -34.565639    -8.365286    0.000000    0.000000    0.000000    
-11.957235    151.045425    -5.652650    0.584420    0.490663    23.721003    -2.862747    2.964063    8.406939    -2.248854    -1.734980    2.743874    -1.241871    4.730826    -16.408804    13.054306    -7.862956    -14.261019    -1.364076    5.891206    -7.215272    -41.594738    9.822673    -45.071136    35.436893    -53.750046    -60.731678    -26.165506    -34.557690    -22.967892    -0.306673    10.719348    0.000031    38.263836    13.750656    47.015247    -40.013008    -33.650562    44.255299    13.100542    -14.601974    33.145359    -1.331995    -34.178940    -27.325726    -15.123862    31.354023    -20.032295    -3.640027    -3.117929    29.878441    0.000000    0.000000    0.000000    2.754948    7.539347    -19.856981    3.603641    30.983919    -4.446863    1.547493    -34.579697    -8.380792    0.000000    0.000000    0.000000    
-11.961276    151.033646    -5.651657    0.582565    0.485952    23.738741    -2.856352    2.956439    8.401565    -2.257439    -1.751071    2.741737    -1.243797    4.774428    -16.410393    13.078765    -7.851988    -14.259141    -1.357628    5.918123    -7.224731    -41.600510    9.828773    -45.090687    35.426971    -53.765266    -60.732048    -26.180052    -34.582596    -22.963100    -0.314486    10.741796    0.013500    38.272736    13.726165    46.986927    -40.014236    -33.665176    44.298820    13.131445    -14.589793    33.156120    -1.321797    -34.190056    -27.277746    -15.137843    31.374834    -20.038631    -3.621344    -3.106145    29.849760    0.000000    0.000000    0.000000    2.764704    7.543759    -19.888088    3.592628    30.989830    -4.426528    1.547348    -34.594059    -8.383145    0.000000    0.000000    0.000000    
-11.967576    151.024323    -5.647890    0.578155    0.475736    23.754070    -2.850185    2.945309    8.403987    -2.259778    -1.740407    2.742846    -1.242445    4.785867    -16.416620    13.092558    -7.838120    -14.264644    -1.354561    5.924554    -7.232772    -41.619686    9.827868    -45.110008    35.415623    -53.753674    -60.740856    -26.195812    -34.564621    -22.973286    -0.320905    10.745748    -0.005151    38.281960    13.705066    46.981621    -40.001244    -33.668602    44.348179    13.146024    -14.573860    33.163692    -1.299223    -34.193779    -27.214870    -15.134717    31.400715    -20.053940    -3.561076    -3.106431    29.770082    0.000000    0.000000    0.000000    2.782105    7.552911    -19.914335    3.578908    30.988451    -4.427982    1.553441    -34.602592    -8.358424    0.000000    0.000000    0.000000    
-11.974714    151.013245    -5.644222    0.573128    0.469847    23.772242    -2.845122    2.930020    8.402745    -2.270708    -1.730328    2.742638    -1.218054    4.789448    -16.416374    13.080578    -7.821600    -14.271343    -1.339687    5.932593    -7.231150    -41.640068    9.834927    -45.136326    35.380589    -53.758259    -60.768600    -26.228794    -34.572094    -22.984526    -0.314406    10.740271    -0.019866    38.278721    13.705265    46.971462    -40.033951    -33.666550    44.352947    13.157220    -14.550011    33.173733    -1.285893    -34.207321    -27.171448    -15.149459    31.417437    -20.058268    -3.610345    -3.110091    29.755566    0.000000    0.000000    0.000000    2.794923    7.557854    -19.914553    3.588621    30.993011    -4.423976    1.533532    -34.617214    -8.386520    0.000000    0.000000    0.000000    
-11.983871    151.003311    -5.639079    0.563168    0.458190    23.793444    -2.843321    2.919671    8.397337    -2.260389    -1.721440    2.741257    -1.208667    4.797030    -16.418974    13.076091    -7.815202    -14.276786    -1.350521    5.924013    -7.231836    -41.676155    9.810056    -45.132717    35.280762    -53.721241    -60.863529    -26.249540    -34.537342    -22.983694    -0.319065    10.748477    -0.042126    38.292282    13.670808    46.975464    -40.023590    -33.645439    44.400867    13.163873    -14.509483    33.162289    -1.263149    -34.212627    -27.126604    -15.147241    31.443584    -20.077385    -3.544407    -3.112979    29.687958    0.000000    0.000000    0.000000    2.815928    7.567959    -19.921440    3.596193    30.989529    -4.446011    1.526868    -34.631165    -8.390609    0.000000    0.000000    0.000000    
-11.989203    150.995575    -5.634672    0.553112    0.448881    23.814924    -2.836845    2.908744    8.387159    -2.262573    -1.719249    2.738020    -1.212152    4.814793    -16.424282    13.110840    -7.799909    -14.276739    -1.347798    5.946624    -7.221809    -41.679138    9.823956    -45.159924    35.295448    -53.722778    -60.851307    -26.267815    -34.529964    -22.996506    -0.315236    10.747199    -0.054376    38.277637    13.679540    46.979256    -40.085320    -33.628166    44.374226    13.174822    -14.469953    33.155937    -1.256937    -34.223450    -27.096453    -15.150235    31.464336    -20.081072    -3.610019    -3.120441    29.693007    0.000000    0.000000    0.000000    2.832646    7.576379    -19.921331    3.618969    30.986397    -4.484769    1.525272    -34.632057    -8.378988    0.000000    0.000000    0.000000    
-11.996729    150.985733    -5.632494    0.540954    0.443696    23.834837    -2.832043    2.892836    8.377173    -2.260105    -1.715782    2.734970    -1.194535    4.823796    -16.422379    13.095935    -7.788825    -14.281022    -1.348884    5.953383    -7.226823    -41.699394    9.820279    -45.149158    35.248386    -53.718124    -60.906052    -26.274609    -34.531471    -22.980612    -0.315323    10.746696    -0.059869    38.277779    13.669128    46.974277    -40.099174    -33.623867    44.391197    13.168858    -14.453324    33.154881    -1.242972    -34.237408    -27.077118    -15.155197    31.493641    -20.089319    -3.526068    -3.114273    29.641087    0.000000    0.000000    0.000000    2.846462    7.572244    -19.932856    3.624867    31.003029    -4.439542    1.516681    -34.639988    -8.429280    0.000000    0.000000    0.000000    
-12.003281    150.977798    -5.629289    0.527131    0.427983    23.854931    -2.822117    2.888498    8.367699    -2.259839    -1.702190    2.732176    -1.191123    4.812803    -16.429655    13.110835    -7.764764    -14.288522    -1.345474    5.948877    -7.228490    -41.716919    9.829479    -45.132889    35.232819    -53.712212    -60.943699    -26.254663    -34.526897    -22.954838    -0.317046    10.728525    -0.073744    38.289898    13.662496    46.973366    -40.118095    -33.608624    44.390018    13.168502    -14.425558    33.170719    -1.231168    -34.243580    -27.070641    -15.155873    31.520473    -20.114965    -3.533223    -3.132622    29.640669    0.000000    0.000000    0.000000    2.870107    7.583166    -19.934757    3.643640    31.000353    -4.490578    1.511797    -34.645573    -8.406569    0.000000    0.000000    0.000000    
